# xmcd CD database file
#
# Track frame offsets:
#	150
#	6041
#	19262
#	41293
#	53220
#	65754
#	109822
#	142474
#	194278
#	221018
#
# Disc length: 3262 seconds
#
# Revision: 0
# Processed by: cddbd v1.5.2PL0 Copyright (c) Steve Scherf et al.
# Submitted via: CDex 1.70beta2
#
DISCID=950cbc0a
DTITLE=Miles Davis - Evolution Of The Groove
DYEAR=1900
DGENRE=Jazz
TTITLE0=Freddie Freeloader (Outtake)
TTITLE1=Freedom Jazz Dance (Evolution Of The Groove) (Remix Version)
TTITLE2=It's About That Time (Remix Version)
TTITLE3=Honky Tonk (Remix Version)
TTITLE4=Black Satin (Remix Version)
TTITLE5=Freddie Freeloader
TTITLE6=Freedom Jazz Dance
TTITLE7=It's About That Time
TTITLE8=Honky Tonk
TTITLE9=Black Satin
EXTD=
EXTT0=
EXTT1=
EXTT2=
EXTT3=
EXTT4=
EXTT5=
EXTT6=
EXTT7=
EXTT8=
EXTT9=
PLAYORDER=
